<svg xmlns="http://www.w3.org/2000/svg" viewBox="0 0 58 58">
  <path fill="#f0c41b" d="M54.783 50H3.217A3.217 3.217 0 010 46.783V11.217A3.217 3.217 0 013.217 8h51.566A3.217 3.217 0 0158 11.217v35.566A3.217 3.217 0 0154.783 50"/>
  <path fill="#806f5e" d="M0 13h58v8H0z"/>
  <path fill="#f9eab0" d="M15 28H6a1 1 0 010-2h9a1 1 0 010 2M28 28h-9a1 1 0 010-2h9a1 1 0 010 2M7 33H6a1 1 0 010-2h1a1 1 0 010 2M13 33h-2a1 1 0 010-2h2a1 1 0 010 2M18 33h-1a1 1 0 010-2h1a1 1 0 010 2M24 33h-2a1 1 0 010-2h2a1 1 0 010 2M28 33c-.26 0-.52-.11-.71-.29-.18-.19-.29-.44-.29-.71 0-.26.11-.52.29-.71.37-.37 1.04-.37 1.42 0 .18.19.29.45.29.71s-.11.52-.29.71c-.19.18-.45.29-.71.29"/>
  <path fill="#db2215" d="M46 39a6 6 0 11-12 0 6 6 0 0112 0"/>
  <path fill="#245ea9" d="M53 39a6 6 0 11-12 0 6 6 0 0112 0"/>
</svg>
