<svg xmlns="http://www.w3.org/2000/svg"  viewBox="0 0 15 10" class="ui-icon__svg-wrapper">    <path fill="#8f9398" d="M7.8 2.2l-.3-.3-.3.3C6.4 3 6 3.9 6 5c0 1.1.4 2.1 1.2 2.8l.3.3.3-.3C8.6 7.1 9 6.1 9 5c0-1.1-.4-2-1.2-2.8z"></path>    <path fill="#676b70" d="M2.2 2.2C1.4 3 1 3.9 1 5c0 1.1.4 2.1 1.2 2.8C3 8.6 3.9 9 5 9c1 0 1.8-.3 2.5-.9l-.3-.3C6.4 7.1 6 6.1 6 5c0-1.1.4-2 1.2-2.8l.3-.3C6.8 1.3 6 1 5 1c-1.1 0-2 .4-2.8 1.2z"></path>    <path fill="#bcc0c5" d="M14 5c0-1.1-.4-2-1.2-2.8C12.1 1.4 11.1 1 10 1c-1 0-1.8.3-2.5.9l.3.3C8.6 3 9 3.9 9 5c0 1.1-.4 2.1-1.2 2.8l-.3.3c.7.6 1.5.9 2.5.9 1.1 0 2.1-.4 2.8-1.2S14 6.1 14 5z"></path></svg>
