<svg xmlns="http://www.w3.org/2000/svg" viewBox="0 0 19 6" class="ui-icon__svg-wrapper" data-qa-file="UIIcon"><path fill="black" d="M6.7 5.9l1-5.8h1.5l-1 5.8zM13.8.2C13.5.1 13 0 12.4 0c-1.5 0-2.6.8-2.6 1.9 0 .8.8 1.3 1.3 1.6.7.3.9.5.9.7 0 .4-.5.6-.9.6-.6 0-.9-.1-1.4-.3l-.3-.1-.2 1.3c.4.2 1 .3 1.7.3 1.6 0 2.7-.8 2.7-2 0-.7-.4-1.2-1.3-1.6-.5-.3-.9-.4-.9-.7 0-.2.3-.5.9-.5.5 0 .9.1 1.2.2l.1.1.2-1.3zm2.1 3.7c.1-.3.6-1.6.6-1.6l.2-.6.1.5s.3 1.4.4 1.7h-1.3zM17.8.1h-1.2c-.4 0-.6.1-.8.5l-2.3 5.3h1.6s.3-.7.3-.9h2c0 .2.2.9.2.9H19L17.8.1zM5.4.1l-1.5 4-.2-.8c-.2-1-1.1-2-2.1-2.5L3 5.9h1.6L7 .1H5.4zM2.5.1H0v.1c1.9.5 3.2 1.6 3.7 3L3.2.6C3.1.2 2.8.1 2.5.1" data-qa-file="Visa"></path></svg>
