<svg xmlns="http://www.w3.org/2000/svg" viewBox="0 0 199.96 196.92">
  <g data-name="Layer 2">
    <path fill="#036cb5" d="M99.51 0a100.77 100.77 0 0143.76 10c2.09.94 4.19 2.07 6.27 3.2l-9.13 8.09-13.69-14.14-23.59 20.69L89.23 13 45.85 51.54l27.78 30.28-10.85 9.4 27.41 30.29-10.85 9.39 39.2 43.1 23.2-21.07 20.18 22.58a113 113 0 01-13.13 8.65 100.29 100.29 0 01-49.09 12.76c-55 0-99.7-44.19-99.7-98.54C-.19 44.39 44.52 0 99.51 0zM81.24 92.35L105 71.29l21.34 23.51-23.79 21.06zM98.18 133l23.59-21.25 21.5 23.51-23.79 21.07zM64.31 52.29l23.78-21.07 21.31 23.52L85.62 75.8zM107.88 41l17.69-15.8 16 17.5-17.7 16zm31.58 72.42l17.69-15.8 16 17.67-17.7 15.81zm15.6 35.58l17.7-15.8 16 17.49-17.69 16zm7.24-81.26l11.79-10.53 10.65 11.66L173 79.37zm-15.23-34.82l11.8-10.72L169.53 34l-11.81 10.58zm30.25 69.59L189.12 92 200 103.64l-12 10.53zm-53.08-26.14l17.7-15.8 16 17.49-17.69 15.8z" data-name="Layer 1"/>
  </g>
</svg>
